<svg width="24" height="22" viewBox="0 0 24 22" fill="none" xmlns="http://www.w3.org/2000/svg">
<path d="M6.16667 7.5H17.8333M6.16667 12.1667H12M22.5 20.3333L18.6216 18.3941C18.3276 18.2471 18.1806 18.1736 18.0265 18.1218C17.8898 18.0758 17.749 18.0426 17.6061 18.0225C17.4451 18 17.2807 18 16.952 18H5.23333C3.92654 18 3.27315 18 2.77402 17.7457C2.33497 17.522 1.97802 17.165 1.75432 16.726C1.5 16.2269 1.5 15.5734 1.5 14.2667V5.4C1.5 4.0932 1.5 3.43981 1.75432 2.94069C1.97802 2.50164 2.33497 2.14468 2.77402 1.92099C3.27315 1.66666 3.92655 1.66666 5.23333 1.66666H18.7667C20.0734 1.66666 20.7269 1.66666 21.226 1.92099C21.665 2.14468 22.022 2.50164 22.2457 2.94069C22.5 3.43981 22.5 4.09321 22.5 5.4V20.3333Z" stroke="#444444" stroke-width="2" stroke-linecap="round" stroke-linejoin="round"/>
</svg>
