<svg width="24" height="20" viewBox="0 0 24 20" fill="none" xmlns="http://www.w3.org/2000/svg">
<path d="M1.5 5.33334L7.85824 9.57219C9.35511 10.57 10.1036 11.069 10.9124 11.2629C11.6274 11.4342 12.3726 11.4342 13.0876 11.2629C13.8964 11.069 14.6449 10.57 16.1418 9.57219L22.5 5.33334M5.23333 18.1667H18.7667C20.0734 18.1667 20.7269 18.1667 21.226 17.9123C21.665 17.6887 22.022 17.3317 22.2457 16.8927C22.5 16.3936 22.5 15.7401 22.5 14.4333V5.56668C22.5 4.25989 22.5 3.60649 22.2457 3.10737C22.022 2.66832 21.665 2.31136 21.226 2.08767C20.7269 1.83334 20.0734 1.83334 18.7667 1.83334H5.23333C3.92655 1.83334 3.27315 1.83334 2.77402 2.08767C2.33497 2.31136 1.97802 2.66832 1.75432 3.10737C1.5 3.60649 1.5 4.25988 1.5 5.56668V14.4333C1.5 15.7401 1.5 16.3936 1.75432 16.8927C1.97802 17.3317 2.33497 17.6887 2.77402 17.9123C3.27315 18.1667 3.92654 18.1667 5.23333 18.1667Z" stroke="#444444" stroke-width="2" stroke-linecap="round" stroke-linejoin="round"/>
</svg>
