<svg width="26" height="26" viewBox="0 0 26 26" fill="none" xmlns="http://www.w3.org/2000/svg">
<g clip-path="url(#clip0_170_317)">
<mask id="mask0_170_317" style="mask-type:luminance" maskUnits="userSpaceOnUse" x="0" y="0" width="26" height="26">
<path d="M26 0H0V26H26V0Z" fill="white"/>
</mask>
<g mask="url(#mask0_170_317)">
<path d="M22.7448 12.6875L24.0982 12.6448C24.085 12.2251 23.8779 11.8353 23.5375 11.5895C23.1971 11.3437 22.7619 11.2698 22.3594 11.3893L22.7448 12.6875ZM13.3122 3.25493L14.6104 3.64031C14.7299 3.2378 14.656 2.80263 14.4102 2.46221C14.1644 2.12179 13.7746 1.91465 13.3549 1.90143L13.3122 3.25493ZM22.3594 11.3893C21.7981 11.5559 21.2022 11.6458 20.583 11.6458V14.3542C21.4659 14.3542 22.3213 14.2257 23.1301 13.9856L22.3594 11.3893ZM20.583 11.6458C17.1428 11.6458 14.3538 8.85695 14.3538 5.41668H11.6455C11.6455 10.3527 15.647 14.3542 20.583 14.3542V11.6458ZM14.3538 5.41668C14.3538 4.79745 14.4438 4.20162 14.6104 3.64031L12.0141 2.86953C11.774 3.67838 11.6455 4.53372 11.6455 5.41668H14.3538ZM12.9997 4.60418C13.09 4.60418 13.18 4.6056 13.2696 4.60842L13.3549 1.90143C13.2369 1.89772 13.1185 1.89584 12.9997 1.89584V4.60418ZM4.60384 13C4.60384 8.36312 8.36278 4.60418 12.9997 4.60418V1.89584C6.86701 1.89584 1.89551 6.86735 1.89551 13H4.60384ZM12.9997 21.3958C8.36278 21.3958 4.60384 17.6369 4.60384 13H1.89551C1.89551 19.1327 6.86701 24.1042 12.9997 24.1042V21.3958ZM21.3955 13C21.3955 17.6369 17.6366 21.3958 12.9997 21.3958V24.1042C19.1323 24.1042 24.1038 19.1327 24.1038 13H21.3955ZM21.3913 12.73C21.3941 12.8196 21.3955 12.9097 21.3955 13H24.1038C24.1038 12.8812 24.102 12.7628 24.0982 12.6448L21.3913 12.73Z" fill="#444444"/>
</g>
</g>
<defs>
<clipPath id="clip0_170_317">
<rect width="26" height="26" fill="white"/>
</clipPath>
</defs>
</svg>
