<svg width="18" height="20" viewBox="0 0 18 20" fill="none" xmlns="http://www.w3.org/2000/svg">
<path d="M6.86322 0C6.32876 0 5.89548 0.433277 5.89548 0.967742C5.89548 1.50221 6.32876 1.93548 6.86322 1.93548V0ZM11.1406 1.93548C11.6751 1.93548 12.1084 1.50221 12.1084 0.967742C12.1084 0.433277 11.6751 0 11.1406 0V1.93548ZM7.45355 16.4516C7.45355 15.9172 7.02026 15.4839 6.4858 15.4839C5.95134 15.4839 5.51806 15.9172 5.51806 16.4516H7.45355ZM12.4858 16.4516C12.4858 15.9172 12.0525 15.4839 11.5181 15.4839C10.9836 15.4839 10.5503 15.9172 10.5503 16.4516H12.4858ZM9.00193 3.32387L9.03045 2.35655C9.01174 2.356 8.99316 2.35599 8.97445 2.35652L9.00193 3.32387ZM15.2848 9.04258L16.2489 8.95935C16.2472 8.94064 16.2452 8.92206 16.2424 8.90348L15.2848 9.04258ZM16.0396 12.9135L15.1148 13.1988C15.1463 13.3008 15.1943 13.3969 15.2572 13.4831L16.0396 12.9135ZM16.3326 15.3806L17.1738 15.8594C17.1941 15.8235 17.2121 15.7865 17.2279 15.7484L16.3326 15.3806ZM14.5462 16.4477V17.4156L14.5584 17.4154L14.5462 16.4477ZM3.45513 16.4477L3.4429 17.4155H3.45513V16.4477ZM1.66868 15.3806L0.773843 15.7492C0.789417 15.787 0.807378 15.8237 0.827611 15.8594L1.66868 15.3806ZM1.95677 12.9174L2.74081 13.4846C2.8028 13.3991 2.85032 13.3037 2.88149 13.2027L1.95677 12.9174ZM2.71161 9.04645L1.75383 8.90787C1.75119 8.92632 1.74906 8.94477 1.74746 8.96323L2.71161 9.04645ZM6.86322 1.93548H11.1406V0H6.86322V1.93548ZM5.51806 16.4516C5.51806 18.3881 7.05484 20 9.00193 20V18.0645C8.16968 18.0645 7.45355 17.3657 7.45355 16.4516H5.51806ZM9.00193 20C10.949 20 12.4858 18.3881 12.4858 16.4516H10.5503C10.5503 17.3657 9.83419 18.0645 9.00193 18.0645V20ZM8.97342 4.29119C11.6548 4.37018 13.9252 6.41363 14.327 9.18168L16.2424 8.90348C15.7106 5.24024 12.6861 2.46425 9.03045 2.35655L8.97342 4.29119ZM14.3205 9.12581C14.44 10.5089 14.7062 11.8747 15.1148 13.1988L16.9643 12.6283C16.5964 11.4359 16.3564 10.2055 16.2489 8.95935L14.3205 9.12581ZM15.2572 13.4831C15.5756 13.9205 15.6464 14.5043 15.4375 15.0129L17.2279 15.7484C17.6906 14.6221 17.5385 13.3283 16.8219 12.344L15.2572 13.4831ZM15.4916 14.9019C15.2861 15.2632 14.9194 15.4752 14.5341 15.4801L14.5584 17.4154C15.6468 17.4017 16.6364 16.8035 17.1738 15.8594L15.4916 14.9019ZM14.5462 15.48H3.45513V17.4155L14.5462 17.4156V15.48ZM3.46735 15.4801C3.08204 15.4752 2.71535 15.2632 2.50974 14.9019L0.827611 15.8594C1.36499 16.8035 2.3545 17.4018 3.4429 17.4155L3.46735 15.4801ZM2.56351 15.0121C2.35455 14.5048 2.42423 13.9222 2.74081 13.4846L1.17275 12.3502C0.460579 13.3345 0.311108 14.6255 0.773843 15.7492L2.56351 15.0121ZM2.88149 13.2027C3.29008 11.8786 3.55639 10.5128 3.67577 9.12968L1.74746 8.96323C1.63988 10.2094 1.39996 11.4397 1.03205 12.6321L2.88149 13.2027ZM3.66939 9.18503C4.07027 6.41323 6.34456 4.36735 9.02942 4.29123L8.97445 2.35652C5.31405 2.46032 2.28437 5.23972 1.75383 8.90787L3.66939 9.18503Z" fill="#444444"/>
</svg>
