<svg width="28" height="28" viewBox="0 0 28 28" fill="none" xmlns="http://www.w3.org/2000/svg">
<path fill-rule="evenodd" clip-rule="evenodd" d="M18.375 7C18.375 4.58375 16.4163 2.625 14 2.625C11.5838 2.625 9.625 4.58375 9.625 7C9.625 9.41625 11.5838 11.375 14 11.375C16.4163 11.375 18.375 9.41625 18.375 7ZM14 4.375C15.4497 4.375 16.625 5.55025 16.625 7C16.625 8.44975 15.4497 9.625 14 9.625C12.5503 9.625 11.375 8.44975 11.375 7C11.375 5.55025 12.5503 4.375 14 4.375Z" fill="#444444"/>
<path fill-rule="evenodd" clip-rule="evenodd" d="M10.792 21C10.792 18.5837 8.83324 16.625 6.41699 16.625C4.00074 16.625 2.04199 18.5837 2.04199 21C2.04199 23.4163 4.00074 25.375 6.41699 25.375C8.83324 25.375 10.792 23.4163 10.792 21ZM6.41699 18.375C7.86674 18.375 9.04199 19.5503 9.04199 21C9.04199 22.4497 7.86674 23.625 6.41699 23.625C4.96725 23.625 3.79199 22.4497 3.79199 21C3.79199 19.5503 4.96725 18.375 6.41699 18.375Z" fill="#444444"/>
<path fill-rule="evenodd" clip-rule="evenodd" d="M21.583 16.625C23.9993 16.625 25.958 18.5837 25.958 21C25.958 23.4163 23.9993 25.375 21.583 25.375C19.1667 25.375 17.208 23.4163 17.208 21C17.208 18.5837 19.1667 16.625 21.583 16.625ZM24.208 21C24.208 19.5503 23.0327 18.375 21.583 18.375C20.1333 18.375 18.958 19.5503 18.958 21C18.958 22.4497 20.1333 23.625 21.583 23.625C23.0327 23.625 24.208 22.4497 24.208 21Z" fill="#444444"/>
<path d="M8.40579 8.82269C8.76809 8.50291 8.80257 7.94997 8.4828 7.58765C8.16301 7.22534 7.61007 7.19087 7.24775 7.51064C5.12988 9.37989 3.79199 12.1176 3.79199 15.1667C3.79199 15.6499 4.18375 16.0417 4.66699 16.0417C5.15024 16.0417 5.54199 15.6499 5.54199 15.1667C5.54199 12.6405 6.64832 10.3738 8.40579 8.82269Z" fill="#444444"/>
<path d="M20.7528 7.51064C20.3906 7.19087 19.8376 7.22534 19.5178 7.58765C19.198 7.94997 19.2325 8.50291 19.5948 8.82269C21.3523 10.3738 22.4586 12.6405 22.4586 15.1667C22.4586 15.6499 22.8504 16.0417 23.3336 16.0417C23.8168 16.0417 24.2086 15.6499 24.2086 15.1667C24.2086 12.1176 22.8707 9.37989 20.7528 7.51064Z" fill="#444444"/>
<path d="M11.8843 23.3586C11.4163 23.2381 10.9393 23.5199 10.8188 23.9878C10.6984 24.4559 10.9801 24.9329 11.4481 25.0533C12.2646 25.2635 13.1197 25.375 13.9996 25.375C14.8795 25.375 15.7345 25.2635 16.5509 25.0533C17.019 24.9329 17.3008 24.4559 17.1802 23.9878C17.0598 23.5199 16.5828 23.2381 16.1148 23.3586C15.4397 23.5324 14.7311 23.625 13.9996 23.625C13.2681 23.625 12.5594 23.5324 11.8843 23.3586Z" fill="#444444"/>
</svg>
