<svg width="24" height="22" viewBox="0 0 24 22" fill="none" xmlns="http://www.w3.org/2000/svg">
<path d="M11.1474 2.14634C11.4175 1.54039 11.5526 1.23742 11.7407 1.14412C11.904 1.06306 12.0958 1.06306 12.2592 1.14412C12.4472 1.23742 12.5823 1.54039 12.8524 2.14634L15.0037 6.97276C15.0837 7.15189 15.1236 7.24145 15.1854 7.31004C15.24 7.37073 15.3068 7.41927 15.3814 7.4525C15.4657 7.49007 15.5633 7.50036 15.7583 7.52094L21.0134 8.07558C21.6731 8.14521 22.0029 8.18002 22.1498 8.33004C22.2773 8.46035 22.3366 8.64281 22.31 8.82323C22.2794 9.03089 22.033 9.25291 21.5402 9.69706L17.6147 13.2346C17.4691 13.3659 17.3962 13.4316 17.3501 13.5115C17.3093 13.5823 17.2838 13.6608 17.2752 13.742C17.2656 13.8338 17.2859 13.9297 17.3266 14.1216L18.423 19.2908C18.5607 19.9398 18.6295 20.2643 18.5322 20.4502C18.4476 20.6119 18.2925 20.7246 18.1127 20.7551C17.9057 20.7901 17.6184 20.6244 17.0437 20.293L12.4662 17.6528C12.2964 17.5548 12.2114 17.5059 12.1211 17.4867C12.0412 17.4697 11.9586 17.4697 11.8787 17.4867C11.7884 17.5059 11.7035 17.5548 11.5336 17.6528L6.95622 20.293C6.38154 20.6244 6.09421 20.7901 5.88723 20.7551C5.70743 20.7246 5.55222 20.6119 5.46771 20.4502C5.37042 20.2643 5.43924 19.9398 5.57689 19.2908L6.67328 14.1216C6.71397 13.9297 6.73432 13.8338 6.72466 13.742C6.71611 13.6608 6.69059 13.5823 6.64976 13.5115C6.60362 13.4316 6.53077 13.3659 6.38509 13.2346L2.4597 9.69706C1.96689 9.25291 1.72048 9.03089 1.68984 8.82323C1.66324 8.64281 1.72252 8.46035 1.85008 8.33004C1.99694 8.18002 2.32682 8.14521 2.98657 8.07558L8.24157 7.52094C8.43661 7.50036 8.53412 7.49007 8.61845 7.4525C8.69306 7.41927 8.75986 7.37073 8.81453 7.31004C8.87631 7.24145 8.91623 7.15189 8.99609 6.97276L11.1474 2.14634Z" stroke="#444444" stroke-width="2" stroke-linecap="round" stroke-linejoin="round"/>
</svg>
