<svg width="28" height="28" viewBox="0 0 28 28" fill="none" xmlns="http://www.w3.org/2000/svg">
<path d="M5.40779 23.3319V4.66813C5.40085 4.58571 5.41742 4.50302 5.45556 4.42964C5.49371 4.35626 5.55187 4.29519 5.62331 4.25352C5.69475 4.21184 5.77653 4.19127 5.85918 4.19419C5.94184 4.19711 6.02197 4.22339 6.09029 4.27L22.3609 13.5625C22.4361 13.5978 22.4996 13.6538 22.5441 13.7239C22.5887 13.7941 22.6123 13.8754 22.6123 13.9584C22.6123 14.0415 22.5887 14.1228 22.5441 14.1929C22.4996 14.2631 22.4361 14.319 22.3609 14.3544L6.09467 23.73C6.02487 23.7698 5.94586 23.7906 5.86552 23.7903C5.78517 23.79 5.70631 23.7686 5.6368 23.7284C5.56729 23.6881 5.50957 23.6303 5.46938 23.5607C5.4292 23.4911 5.40796 23.4122 5.40779 23.3319Z" stroke="#444444" stroke-width="2"/>
<path d="M5.40723 4.66813L18.4054 16.6338" stroke="#444444" stroke-width="2"/>
<path d="M5.40723 23.3319L18.0422 11.0906" stroke="#444444" stroke-width="2"/>
</svg>
