<svg width="28" height="28" viewBox="0 0 28 28" fill="none" xmlns="http://www.w3.org/2000/svg">
<path d="M15.1608 5.36467H12.865V7.66041H15.1608V5.36467ZM14.4329 6.8765H13.649V6.09259H14.4329V6.8765ZM16.3087 19.895V20.259H11.7172V19.895H10.9893V20.524C10.9893 20.8404 11.3136 21.0429 11.63 21.0429H16.6028C16.9192 21.0429 17.0925 20.8404 17.0925 20.524V19.895H16.3087Z" fill="#888888"/>
<path d="M13.2853 12.6159H7.12598V9.23947C7.12598 9.02907 7.40337 8.80829 7.61377 8.80829H12.9691C13.1795 8.80829 13.2853 9.02907 13.2853 9.23947V12.6159H13.2853ZM20.9004 12.6159H14.7971V9.23947C14.7971 9.02907 15.0539 8.80829 15.2643 8.80829H20.6197C20.8301 8.80829 20.9004 9.02907 20.9004 9.23947V12.6159Z" fill="#444444"/>
<path d="M16.6729 19.8951V20.524C16.6729 20.6292 16.7083 20.623 16.6031 20.623H11.6303C11.5251 20.623 11.3535 20.6292 11.3535 20.524V19.8951" fill="#888888"/>
<path d="M2.1416 20.623H5.22126V21.4069H2.1416V20.623ZM22.8313 20.623H25.8829V21.4069H22.8313V20.623ZM24.3711 19.895H23.5872V7.32683C23.5872 6.69402 23.1642 6.09259 22.5314 6.09259H5.7002C5.06739 6.09259 4.43734 6.69402 4.43734 7.32683V19.895H3.70943V7.32683C3.70943 6.27219 4.64564 5.36467 5.7002 5.36467H22.5314C23.5859 5.36467 24.3711 6.27216 24.3711 7.32683V19.895Z" fill="#444444"/>
<path d="M24.8272 22.5548H3.40572C2.56204 22.5548 1.77832 21.9415 1.77832 21.0978V20.3327C1.77832 19.9108 2.21874 19.4751 2.64068 19.4751H25.5923C26.0142 19.4751 26.2476 19.9108 26.2476 20.3327V21.0978C26.2476 21.9415 25.6709 22.5548 24.8272 22.5548ZM2.56223 20.259V21.0978C2.56223 21.5197 2.98378 21.7708 3.40572 21.7708H24.8272C25.2491 21.7708 25.5197 21.5197 25.5197 21.0978V20.259H2.56223ZM22.832 18.7472H5.22193V8.09188C5.22193 7.45907 5.83313 6.87651 6.46595 6.87651H21.767C22.3998 6.87651 22.832 7.45907 22.832 8.09188V18.7472ZM6.00585 17.9633H22.048V8.09188C22.048 7.88093 21.9779 7.66042 21.767 7.66042H6.46595C6.25507 7.66042 6.00585 7.88093 6.00585 8.09188V17.9633Z" fill="#444444"/>
<path d="M7.12598 13.3718H13.2853V14.1277H7.12598V13.3718ZM8.27385 14.9116H12.1374V15.6675H8.27385V14.9116ZM14.7971 13.3718H20.9004V14.1277H14.7971V13.3718ZM15.945 14.9116H19.7526V15.6675H15.945V14.9116Z" fill="#444444"/>
</svg>
